<svg xmlns="http://www.w3.org/2000/svg" viewBox="0 0 100 100"><path d="M31 44h-2c-1.1 0-2-.9-2-2v-4c0-1.1.9-2 2-2h2c1.1 0 2 .9 2 2v4c0 1.1-.9 2-2 2zm-2-6v4h2v-4h-2zm32 5h-2v-5h-2v2h-2v-2c0-1.1.9-2 2-2h2c1.1 0 2 .9 2 2v5zm-18 0h-2v-5c0-1.1.9-2 2-2h2c1.1 0 2 .9 2 2v2h-2v-2h-2v5zm25 12h-2c-1.1 0-2-.9-2-2v-4c0-1.1.9-2 2-2h2c1.1 0 2 .9 2 2v4c0 1.1-.9 2-2 2zm-2-6v4h2v-4h-2zm2 17h-1v-2h1v-4h-2v1h-2v-1c0-1.1.9-2 2-2h2c1.1 0 2 .9 2 2v4c0 1.1-.9 2-2 2zM36 36h2v8h-2zm14 0h2v4h-2zm23 11h2v8h-2zm0 11h2v8h-2zm0-14h-2c-1.1 0-2-.9-2-2v-4c0-1.1.9-2 2-2h2c1.1 0 2 .9 2 2v4c0 1.1-.9 2-2 2zm-2-6v4h2v-4h-2zm-7-2h2v8h-2zM36 55h-2c-1.1 0-2-.9-2-2v-4c0-1.1.9-2 2-2h2c1.1 0 2 .9 2 2v4c0 1.1-.9 2-2 2zm-2-6v4h2v-4h-2zm-7-2h2v8h-2zm4 19h-2c-1.1 0-2-.9-2-2v-4c0-1.1.9-2 2-2h2c1.1 0 2 .9 2 2v4c0 1.1-.9 2-2 2zm-2-6v4h2v-4h-2zm30 6h-2c-1.1 0-2-.9-2-2v-2h2v2h2v-1h2v1c0 1.1-.9 2-2 2zm-9 0h-2c-1.1 0-2-.9-2-2v-2h2v2h2v-2h2v2c0 1.1-.9 2-2 2zm-14-8h2v8h-2zm5 1h2v7h-2zm10 2c-5.5 0-10-4.5-10-10s4.5-10 10-10 10 4.5 10 10-4.5 10-10 10zm0-18c-4.4 0-8 3.6-8 8s3.6 8 8 8 8-3.6 8-8-3.6-8-8-8z"/><path d="M54 55h-2c-1.1 0-2-.9-2-2v-4c0-1.1.9-2 2-2h2c1.1 0 2 .9 2 2v4c0 1.1-.9 2-2 2zm-2-6v4h2v-4h-2zm-6-2h2v8h-2zm10.262 10.677l1.414-1.415 7.99 7.99-1.414 1.415z"/></svg>