<svg xmlns="http://www.w3.org/2000/svg" viewBox="0 0 100 100"><path d="M30 60h39c2.7 0 4.8-2.1 5-4.8l8-21.9c.1-.3.1-.6-.1-.9-.3-.2-.6-.4-.9-.4H31V20H18v6h7v29.4c-3 1.7-5 5-5 8.6 0 5.2 4 9.5 9.1 10 .5 3.4 3.4 6 6.9 6 3.5 0 6.4-2.6 6.9-6h17.2c.5 3.4 3.4 6 6.9 6 3.9 0 7-3.1 7-7s-3.1-7-7-7c-1.9 0-3.6.8-4.9 2H40.9c-1.3-1.2-3-2-4.9-2s-3.6.8-4.9 2H30c-2.2 0-4-1.8-4-4s1.8-4 4-4zm4-26v2h2v-2h4v2h2v-2h4v2h2v-2h4v2h2v-2h4v2h2v-2h4v2h2v-2h4v2h2v-2h4v2h2v-2h1.6l-2.2 6H76v2h.7l-2.5 7H73v2h.4l-1.1 3H72v-2h-2v2h-4v-2h-2v2h-4v-2h-2v2h-4v-2h-2v2h-4v-2h-2v2h-4v-2h-2v2h-4v-2h-2v2h-3v-3h2v-2h-2v-4h2v-2h-2v-4h2v-2h-2v-3h3zm-7-8v-2h-7v-2h9v32.1c-.7.1-1.4.2-2 .4V26zm15.3 44h18.4c-.3.6-.5 1.3-.6 2H42.9c-.1-.7-.3-1.4-.6-2zM67 68c2.8 0 5 2.2 5 5s-2.2 5-5 5-5-2.2-5-5 2.2-5 5-5zm-31 0c2.8 0 5 2.2 5 5s-2.2 5-5 5-5-2.2-5-5 2.2-5 5-5zm-6.3 2c-.3.6-.5 1.3-.6 2-4-.5-7.1-3.8-7.1-7.9 0-4.4 3.6-8 8-8h41.8c-.4 1.2-1.5 2-2.8 2H30c-3.3 0-6 2.7-6 6 0 3.1 2.5 5.7 5.7 5.9z"/><circle cx="36" cy="73" r="2"/><circle cx="67" cy="73" r="2"/><path d="M34 46h2v2h-2zm3 3h2v2h-2zm6 0h2v2h-2zm-3-3h2v2h-2zm9 3h2v2h-2zm-3-3h2v2h-2zm6 0h2v2h-2zm3 3h2v2h-2zm6 0h2v2h-2zm-3-3h2v2h-2zm9 3h2v2h-2zm-3-3h2v2h-2zm6 0h2v2h-2zm-36-6h2v2h-2zm3 3h2v2h-2zm6 0h2v2h-2zm-3-3h2v2h-2zm9 3h2v2h-2zm-3-3h2v2h-2zm6 0h2v2h-2zm3 3h2v2h-2zm6 0h2v2h-2zm-3-3h2v2h-2zm9 3h2v2h-2zm-3-3h2v2h-2zm6 0h2v2h-2zm-33-3h2v2h-2zm6 0h2v2h-2zm6 0h2v2h-2zm24 0h2v2h-2zm0 6h2v2h-2zm-6-6h2v2h-2zm-6 0h2v2h-2zm-6 0h2v2h-2z"/></svg>