<svg xmlns="http://www.w3.org/2000/svg" viewBox="0 0 100 100"><path d="M74 62v-8c0-1.7-1.3-3-3-3h-5v2h5c.6 0 1 .4 1 1v8h-8v22h18V65.6L78.4 62H74zm6 20H66V64h11.6l2.4 2.4V82zM28 62v-8c0-.6.4-1 1-1h5v-2h-5c-1.7 0-3 1.3-3 3v8h-8v22h18V65.6L32.4 62H28zm-8 8.5l6.5-6.5h4.2L20 74.8v-4.3zm3.7-6.5L20 67.7V64h3.7zM20 82zm14-7.1L26.9 82h-4.2L34 70.7v4.2zM29.7 82l4.3-4.3V82h-4.3zM34 67.8l-14 14v-4.2L32.6 65l1.4 1.4v1.4zm38-29.9V46c0 .6-.4 1-1 1h-5v2h5c1.7 0 3-1.3 3-3v-8.1c4.5-.5 8-4.3 8-8.9 0-5-4-9-9-9s-9 4-9 9c0 4.6 3.5 8.4 8 8.9zM73 22c3.9 0 7 3.1 7 7s-3.1 7-7 7-7-3.1-7-7 3.1-7 7-7zM26 37.9V46c0 1.7 1.3 3 3 3h5v-2h-5c-.6 0-1-.4-1-1v-8.1c4.5-.5 8-4.3 8-8.9 0-5-4-9-9-9s-9 4-9 9c0 4.6 3.5 8.4 8 8.9zM27 22c3.9 0 7 3.1 7 7s-3.1 7-7 7-7-3.1-7-7 3.1-7 7-7zm37 23c0-1.7-1.3-3-3-3H51v-4.1c4.5-.5 8-4.3 8-8.9 0-5-4-9-9-9s-9 4-9 9c0 4.6 3.5 8.4 8 8.9V42H39c-1.7 0-3 1.3-3 3v10c0 1.7 1.3 3 3 3h10v4h-8v22h18V65.6L55.4 62H51v-4h10c1.7 0 3-1.3 3-3V45zM43 29c0-3.9 3.1-7 7-7s7 3.1 7 7-3.1 7-7 7-7-3.1-7-7zm14 37.4V68h-2v2h2v4h-2v2h2v4h-2v2h-4v-2h-2v2h-4v-2h-2v-4h2v-2h-2v-4h2v-2h-2v-4h11.6l2.4 2.4zM62 55c0 .6-.4 1-1 1H39c-.6 0-1-.4-1-1V45c0-.6.4-1 1-1h22c.6 0 1 .4 1 1v10z"/><path d="M49 49h2v2h-2zm-4 0h2v2h-2zm8 0h2v2h-2zm-7 28h2v2h-2zm6 0h2v2h-2zm-6-6h2v2h-2zm3 3h2v2h-2zm3-3h2v2h-2zm-6-6h2v2h-2zm3 3h2v2h-2zm3-3h2v2h-2z"/></svg>