<svg xmlns="http://www.w3.org/2000/svg" viewBox="0 0 100 100"><path d="M34 67.5c-.3 0-.5 0-.8-.1-.8-.3-1.3-1-1.3-1.9V60h-1c-2.8 0-5-2.2-5-5V32c0-2.8 2.2-5 5-5h29c2.8 0 5 2.2 5 5v23c0 2.8-2.2 5-5 5H42.1l-6.7 6.9c-.3.4-.9.6-1.4.6zM31 29c-1.7 0-3 1.3-3 3v23c0 1.7 1.3 3 3 3h2c.6 0 1 .4 1 1v6.5l7-7.2c.2-.2.4-.3.7-.3H60c1.7 0 3-1.3 3-3V32c0-1.7-1.3-3-3-3H31z"/><path d="M66 72.6c-.5 0-1-.2-1.4-.6l-6-6H50c-2.8 0-5-2.2-5-5h2c0 1.7 1.3 3 3 3h9c.3 0 .5.1.7.3l6.3 6.3V65c0-.6.4-1 1-1h2c1.7 0 3-1.3 3-3V46c0-1.7-1.3-3-3-3h-3v-2h3c2.8 0 5 2.2 5 5v15c0 2.8-2.2 5-5 5h-1v4.6c0 .8-.5 1.5-1.2 1.8-.3.1-.5.2-.8.2z"/><path d="M46.9 56h-2.8c-1 0-2.1-.8-2.1-1.9v-1.5c-.2-.1-.3-.1-.5-.2l-.2-.1-1 1c-.7.8-2 .8-2.7 0l-1.9-1.9c-.4-.4-.6-.8-.6-1.4 0-.5.2-1 .6-1.4l1-1-.3-.6H35c-1.1 0-1.9-1.1-1.9-2.1v-2.8c0-1 .8-2.1 1.9-2.1h1.4l.3-.6.1-.2-1-1c-.7-.7-.7-2 0-2.7l2-2c.7-.7 2-.7 2.7 0l1 1h.1l.6-.3v-1.4c0-1.1 1.1-1.9 2.1-1.9h2.8c1 0 2.1.8 2.1 1.9v1.4c.2.1.3.1.5.2l.2.1 1-1c.4-.4.8-.6 1.4-.6.5 0 1 .2 1.4.6l2 2c.7.7.7 2 0 2.7l-1 1c.1.2.2.5.3.7h1.4c1.1 0 1.9 1.1 1.9 2.1v2.8c0 1-.8 2.1-1.9 2.1H55c-.1.2-.2.4-.3.5l-.1.1 1 1c.4.4.6.8.6 1.4 0 .5-.2 1-.6 1.4l-1.9 1.9c-.7.7-2 .7-2.7 0l-1-1h-.1l-.6.3V54c-.3 1.2-1.4 2-2.4 2zM44 54h3v-1.4c0-.9.5-1.5 1.2-1.8.2-.1.3-.1.5-.2l.1-.1c.8-.4 1.6-.2 2.2.4l1 1 1.8-1.8-1-.9c-.6-.6-.7-1.5-.4-2.3l.1-.2c.1-.1.1-.2.1-.3.3-.8 1-1.2 1.8-1.2H56v-3h-1.3c-.9 0-1.6-.5-1.8-1.2-.1-.2-.2-.4-.2-.5-.4-.8-.3-1.7.3-2.3l1-1-2-2.1-1 1c-.6.6-1.5.7-2.2.4-.1 0-.2-.1-.3-.1-.1-.1-.2-.1-.3-.2-.8-.3-1.2-.9-1.2-1.8V33h-3v1.3c0 .9-.5 1.6-1.2 1.8-.2.1-.3.1-.5.2l-.1.1c-.7.4-1.6.2-2.2-.4l-1-1-1.8 1.8 1 1c.6.6.7 1.5.3 2.2l-.1.2c-.1.1-.1.2-.2.4-.2.9-.9 1.4-1.8 1.4H35v3h1.3c.9 0 1.6.5 1.8 1.2.1.2.1.3.2.5l.1.1c.4.7.3 1.6-.3 2.2l-1 .9 1.8 1.8 1-1c.6-.6 1.5-.7 2.2-.4.1 0 .2.1.3.1.1.1.2.1.3.2.7.3 1.2 1 1.2 1.8V54zm9.9-4.1z"/><path d="M45.5 48C43 48 41 46 41 43.5s2-4.5 4.5-4.5 4.5 2 4.5 4.5-2 4.5-4.5 4.5zm0-7c-1.4 0-2.5 1.1-2.5 2.5s1.1 2.5 2.5 2.5 2.5-1.1 2.5-2.5-1.1-2.5-2.5-2.5z"/></svg>