<?xml version="1.0" encoding="utf-8"?>
<!-- Generator: Adobe Illustrator 21.0.1, SVG Export Plug-In . SVG Version: 6.00 Build 0)  -->
<svg version="1.1" id="Слой_1" xmlns="http://www.w3.org/2000/svg" xmlns:xlink="http://www.w3.org/1999/xlink" x="0px" y="0px"
	 viewBox="0 0 100 100" style="enable-background:new 0 0 100 100;" xml:space="preserve">
<g>
	<path d="M31,44h-2c-1.1,0-2-0.9-2-2v-4c0-1.1,0.9-2,2-2h2c1.1,0,2,0.9,2,2v4C33,43.1,32.1,44,31,44z M29,38v4h2v-4H29z"/>
	<path d="M61,43h-2v-5h-2v2h-2v-2c0-1.1,0.9-2,2-2h2c1.1,0,2,0.9,2,2V43z"/>
	<path d="M43,43h-2v-5c0-1.1,0.9-2,2-2h2c1.1,0,2,0.9,2,2v2h-2v-2h-2V43z"/>
	<path d="M68,55h-2c-1.1,0-2-0.9-2-2v-4c0-1.1,0.9-2,2-2h2c1.1,0,2,0.9,2,2v4C70,54.1,69.1,55,68,55z M66,49v4h2l0-4H66z"/>
	<path d="M68,66h-1v-2h1v-4h-2v1h-2v-1c0-1.1,0.9-2,2-2h2c1.1,0,2,0.9,2,2v4C70,65.1,69.1,66,68,66z"/>
	<rect x="36" y="36" width="2" height="8"/>
	<rect x="50" y="36" width="2" height="4"/>
	<rect x="73" y="47" width="2" height="8"/>
	<rect x="73" y="58" width="2" height="8"/>
	<path d="M73,44h-2c-1.1,0-2-0.9-2-2v-4c0-1.1,0.9-2,2-2h2c1.1,0,2,0.9,2,2v4C75,43.1,74.1,44,73,44z M71,38v4h2v-4H71z"/>
	<rect x="64" y="36" width="2" height="8"/>
	<path d="M36,55h-2c-1.1,0-2-0.9-2-2v-4c0-1.1,0.9-2,2-2h2c1.1,0,2,0.9,2,2v4C38,54.1,37.1,55,36,55z M34,49v4h2v-4H34z"/>
	<rect x="27" y="47" width="2" height="8"/>
	<path d="M31,66h-2c-1.1,0-2-0.9-2-2v-4c0-1.1,0.9-2,2-2h2c1.1,0,2,0.9,2,2v4C33,65.1,32.1,66,31,66z M29,60v4h2l0-4H29z"/>
	<path d="M59,66h-2c-1.1,0-2-0.9-2-2v-2h2v2h2v-1h2v1C61,65.1,60.1,66,59,66z"/>
	<path d="M50,66h-2c-1.1,0-2-0.9-2-2v-2h2v2h2v-2h2v2C52,65.1,51.1,66,50,66z"/>
	<rect x="36" y="58" width="2" height="8"/>
	<rect x="41" y="59" width="2" height="7"/>
	<path d="M51,61c-5.5,0-10-4.5-10-10s4.5-10,10-10s10,4.5,10,10S56.5,61,51,61z M51,43c-4.4,0-8,3.6-8,8s3.6,8,8,8s8-3.6,8-8
		S55.4,43,51,43z"/>
	<path d="M54,55h-2c-1.1,0-2-0.9-2-2v-4c0-1.1,0.9-2,2-2h2c1.1,0,2,0.9,2,2v4C56,54.1,55.1,55,54,55z M52,49v4h2l0-4H52z"/>
	<rect x="46" y="47" width="2" height="8"/>
	<rect x="60" y="55.3" transform="matrix(0.7071 -0.7071 0.7071 0.7071 -25.267 61)" width="2" height="11.3"/>
</g>
</svg>
