<?xml version="1.0" encoding="utf-8"?>
<!-- Generator: Adobe Illustrator 21.0.1, SVG Export Plug-In . SVG Version: 6.00 Build 0)  -->
<svg version="1.1" id="Слой_1" xmlns="http://www.w3.org/2000/svg" xmlns:xlink="http://www.w3.org/1999/xlink" x="0px" y="0px"
	 viewBox="0 0 100 100" style="enable-background:new 0 0 100 100;" xml:space="preserve">
<g>
	<path d="M30,60h39c2.7,0,4.8-2.1,5-4.8l8-21.9c0.1-0.3,0.1-0.6-0.1-0.9C81.6,32.2,81.3,32,81,32H31V22v-2h-2h-9v0h-2v0v2v2v2v0h7
		v29.4c-3,1.7-5,5-5,8.6c0,5.2,4,9.5,9.1,10c0.5,3.4,3.4,6,6.9,6c3.5,0,6.4-2.6,6.9-6h17.2c0.5,3.4,3.4,6,6.9,6c3.9,0,7-3.1,7-7
		c0-3.9-3.1-7-7-7c-1.9,0-3.6,0.8-4.9,2H40.9c-1.3-1.2-3-2-4.9-2s-3.6,0.8-4.9,2H30c-2.2,0-4-1.8-4-4C26,61.8,27.8,60,30,60z M34,34
		v2h2v-2h4v2h2v-2h4v2h2v-2h4v2h2v-2h4v2h2v-2h4v2h2v-2h4v2h2v-2h4v2h2v-2h1.6l-2.2,6H76v2h0.7l-2.5,7H73v2h0.4l-1.1,3H72v-2h-2v2
		h-4v-2h-2v2h-4v-2h-2v2h-4v-2h-2v2h-4v-2h-2v2h-4v-2h-2v2h-4v-2h-2v2h-3v-3h2v-2h-2v-4h2v-2h-2v-4h2v-2h-2v-3H34z M27,26v-2h-2h-5
		v-2h9v11v16v5.1c-0.7,0.1-1.4,0.2-2,0.4V26z M42.3,70h18.4c-0.3,0.6-0.5,1.3-0.6,2H42.9C42.8,71.3,42.6,70.6,42.3,70z M67,68
		c2.8,0,5,2.2,5,5c0,2.8-2.2,5-5,5s-5-2.2-5-5C62,70.2,64.2,68,67,68z M36,68c2.8,0,5,2.2,5,5c0,2.8-2.2,5-5,5c-2.8,0-5-2.2-5-5
		C31,70.2,33.2,68,36,68z M29.7,70c-0.3,0.6-0.5,1.3-0.6,2c-4-0.5-7.1-3.8-7.1-7.9c0-4.4,3.6-8,8-8h41.8c-0.4,1.2-1.5,2-2.8,2H30
		c-3.3,0-6,2.7-6,6C24,67.2,26.5,69.8,29.7,70z"/>
	<circle cx="36" cy="73" r="2"/>
	<circle cx="67" cy="73" r="2"/>
	<rect x="34" y="46" width="2" height="2"/>
	<rect x="37" y="49" width="2" height="2"/>
	<rect x="43" y="49" width="2" height="2"/>
	<rect x="40" y="46" width="2" height="2"/>
	<rect x="49" y="49" width="2" height="2"/>
	<rect x="46" y="46" width="2" height="2"/>
	<rect x="52" y="46" width="2" height="2"/>
	<rect x="55" y="49" width="2" height="2"/>
	<rect x="61" y="49" width="2" height="2"/>
	<rect x="58" y="46" width="2" height="2"/>
	<rect x="67" y="49" width="2" height="2"/>
	<rect x="64" y="46" width="2" height="2"/>
	<rect x="70" y="46" width="2" height="2"/>
	<rect x="34" y="40" width="2" height="2"/>
	<rect x="37" y="43" width="2" height="2"/>
	<rect x="43" y="43" width="2" height="2"/>
	<rect x="40" y="40" width="2" height="2"/>
	<rect x="49" y="43" width="2" height="2"/>
	<rect x="46" y="40" width="2" height="2"/>
	<rect x="52" y="40" width="2" height="2"/>
	<rect x="55" y="43" width="2" height="2"/>
	<rect x="61" y="43" width="2" height="2"/>
	<rect x="58" y="40" width="2" height="2"/>
	<rect x="67" y="43" width="2" height="2"/>
	<rect x="64" y="40" width="2" height="2"/>
	<rect x="70" y="40" width="2" height="2"/>
	<rect x="37" y="37" width="2" height="2"/>
	<rect x="43" y="37" width="2" height="2"/>
	<rect x="49" y="37" width="2" height="2"/>
	<rect x="73" y="37" width="2" height="2"/>
	<rect x="73" y="43" width="2" height="2"/>
	<rect x="67" y="37" width="2" height="2"/>
	<rect x="61" y="37" width="2" height="2"/>
	<rect x="55" y="37" width="2" height="2"/>
</g>
</svg>
