<?xml version="1.0" encoding="utf-8"?>
<!-- Generator: Adobe Illustrator 21.0.1, SVG Export Plug-In . SVG Version: 6.00 Build 0)  -->
<svg version="1.1" id="Слой_1" xmlns="http://www.w3.org/2000/svg" xmlns:xlink="http://www.w3.org/1999/xlink" x="0px" y="0px"
	 viewBox="0 0 100 100" style="enable-background:new 0 0 100 100;" xml:space="preserve">
<g>
	<path d="M85,25h-5V14c0-0.5-0.2-0.7-0.7-0.9c-0.4-0.2-0.9-0.1-1.3,0.3L67,25H34c-1.1,0-2,0.9-2,2v7H15c-1.3,0-2,0.8-2,2.1v37
		c0,1.3,0.7,1.9,2,1.9h5v11c0,0.5,0.2,0.7,0.7,0.9c0.1,0.1,0.3,0.1,0.4,0.1c0.3,0,0.6-0.1,0.8-0.3L33,75h33c1.3,0,2-1,2-2v-7h17
		c1.2,0,2-0.8,2-1.9V27C87,25.9,86.1,25,85,25z M66,73H33c-0.3,0-0.9,0.2-1.2,0.5L22,83v-8c0-1,0-2-1-2h-6V36h17v28c0,1.1,0.9,2,2,2
		h30h2V73z M66,41h-2v2h2v4h-2v2h2v4h-2v2h2v4h-2v2h2v3h-2h-1v-2h-2v2h-4v-2h-2v2h-4v-2h-2v2h-4v-2h-2v2h-4v-2h-2v2h-3v-3h2v-2h-2
		v-4h2v-2h-2v-4h2v-2h-2v-4h2v-2h-2v-4h2v-1h4v1h2v-1h4v1h2v-1h4v1h2v-1h4v1h2v-1h4v1h2V41z M85,64H68V36c0-1-0.7-2-2-2H34v-7h33
		c0.3,0,0.9-0.2,1.2-0.5L78,17v9c0,0.6,0.4,1,1,1h6V64z"/>
	<rect x="40" y="59" width="2" height="2"/>
	<rect x="46" y="59" width="2" height="2"/>
	<rect x="52" y="59" width="2" height="2"/>
	<rect x="58" y="59" width="2" height="2"/>
	<rect x="37" y="56" width="2" height="2"/>
	<rect x="43" y="56" width="2" height="2"/>
	<rect x="40" y="53" width="2" height="2"/>
	<rect x="49" y="56" width="2" height="2"/>
	<rect x="46" y="53" width="2" height="2"/>
	<rect x="52" y="53" width="2" height="2"/>
	<rect x="55" y="56" width="2" height="2"/>
	<rect x="61" y="56" width="2" height="2"/>
	<rect x="58" y="53" width="2" height="2"/>
	<rect x="37" y="50" width="2" height="2"/>
	<rect x="43" y="50" width="2" height="2"/>
	<rect x="40" y="47" width="2" height="2"/>
	<rect x="49" y="50" width="2" height="2"/>
	<rect x="46" y="47" width="2" height="2"/>
	<rect x="52" y="47" width="2" height="2"/>
	<rect x="55" y="50" width="2" height="2"/>
	<rect x="61" y="50" width="2" height="2"/>
	<rect x="58" y="47" width="2" height="2"/>
	<rect x="37" y="44" width="2" height="2"/>
	<rect x="37" y="38" width="2" height="2"/>
	<rect x="43" y="38" width="2" height="2"/>
	<rect x="43" y="44" width="2" height="2"/>
	<rect x="46" y="41" width="2" height="2"/>
	<rect x="49" y="44" width="2" height="2"/>
	<rect x="52" y="41" width="2" height="2"/>
	<rect x="55" y="38" width="2" height="2"/>
	<rect x="58" y="41" width="2" height="2"/>
	<rect x="61" y="44" width="2" height="2"/>
	<rect x="55" y="44" width="2" height="2"/>
	<rect x="49" y="38" width="2" height="2"/>
	<rect x="40" y="41" width="2" height="2"/>
	<rect x="61" y="38" width="2" height="2"/>
</g>
</svg>
