<?xml version="1.0" encoding="utf-8"?>
<!-- Generator: Adobe Illustrator 21.0.1, SVG Export Plug-In . SVG Version: 6.00 Build 0)  -->
<svg version="1.1" id="Слой_1" xmlns="http://www.w3.org/2000/svg" xmlns:xlink="http://www.w3.org/1999/xlink" x="0px" y="0px"
	 viewBox="0 0 100 100" style="enable-background:new 0 0 100 100;" xml:space="preserve">
<g>
	<path d="M74,73H28V40h46V73z M30,71h42V42H30V71z"/>
	<rect x="29" y="46" width="44" height="2"/>
	<rect x="32" y="43" width="2" height="2"/>
	<rect x="36" y="43" width="2" height="2"/>
	<rect x="40" y="43" width="2" height="2"/>
	<rect x="32" y="36" width="38" height="2"/>
	<rect x="39" y="32" width="24" height="2"/>
</g>
<polygon points="45.3,63.7 40.6,59 45.3,54.3 46.7,55.7 43.4,59 46.7,62.3 "/>
<polygon points="56.7,63.7 55.3,62.3 58.6,59 55.3,55.7 56.7,54.3 61.4,59 "/>
<rect x="43.7" y="58" transform="matrix(0.2745 -0.9616 0.9616 0.2745 -19.7319 91.8482)" width="14.6" height="2"/>
</svg>
