<?xml version="1.0" encoding="utf-8"?>
<!-- Generator: Adobe Illustrator 21.0.1, SVG Export Plug-In . SVG Version: 6.00 Build 0)  -->
<svg version="1.1" id="Слой_1" xmlns="http://www.w3.org/2000/svg" xmlns:xlink="http://www.w3.org/1999/xlink" x="0px" y="0px"
	 viewBox="0 0 100 100" style="enable-background:new 0 0 100 100;" xml:space="preserve">
<g>
	<path d="M81,78.2l0.1-0.1L81,78V64.1l0,0l0,0v-7l0,0l0,0v-2.4L72.4,46H62V18h-2v28h-2V31h-1h-1h-6v2h6v17h-3v2h10v-2h-5v-2h13.6
		l6,6H26.4l-6-6H36v-2H17v27.4l8.6,8.6H56l0,0l0,0h25V78.2z M76.4,80h-4.2l6.8-6.8v4.2L76.4,80z M79,71l-0.3-0.3L69.3,80h-4.2
		L79,66.1V71z M27,61.5l5.5-5.5h4.2L27,65.8V61.5z M27,68.6L39.6,56h4.2L27,72.8V68.6z M46.7,56h4.2L27,79.9v-4.2L46.7,56z M53.7,56
		H58L34,80l0,0h-4.3L53.7,56z M60.8,56h4.2l-24,24h-4.2L60.8,56z M67.9,56h4.2l-24,24h-4.2L67.9,56z M74.9,56H79v0.2L55.2,80h-4.2
		L74.9,56z M29.7,56L27,58.7V56H29.7z M19,49.4l6,6v19.4l-0.1,0.1L25,75v3.6l-6-6V49.4z M79,59v4.2L62.3,80H58L79,59z"/>
	<path d="M38,50h-4v2h9v-2h-3V33h2v2c0,1.7,1.3,3,3,3s3-1.3,3-3v-3.5l6-4V24h-2v2.5l-6,4V35c0,0.6-0.4,1-1,1c-0.6,0-1-0.4-1-1v-7.6
		l5-5V18h-2v3.6l-5,5V31h-4V50z"/>
	<polygon points="52.4,39.6 47.2,44.8 44.6,42.2 43.2,43.6 47.4,47.8 48.8,46.4 54,41 	"/>
</g>
</svg>
