<?xml version="1.0" encoding="utf-8"?>
<!-- Generator: Adobe Illustrator 21.0.1, SVG Export Plug-In . SVG Version: 6.00 Build 0)  -->
<svg version="1.1" id="Слой_1" xmlns="http://www.w3.org/2000/svg" xmlns:xlink="http://www.w3.org/1999/xlink" x="0px" y="0px"
	 viewBox="0 0 223 102" style="enable-background:new 0 0 223 102;" xml:space="preserve">
<style type="text/css">
	.st0{fill:#FFFFFF;}
</style>
<path class="st0" d="M84.6,59.3c0,0.8-0.2,1.5-0.5,2c-0.3,0.6-0.8,1.1-1.3,1.5c-0.6,0.4-1.2,0.7-2,0.9C80,63.9,79.1,64,78.1,64
	c-0.4,0-0.9,0-1.3-0.1s-0.8-0.1-1.2-0.1s-0.8-0.1-1.1-0.2c-0.4-0.1-0.7-0.1-1-0.2v-2.2c0.6,0.2,1.3,0.4,2.1,0.6
	c0.8,0.1,1.7,0.2,2.7,0.2c0.7,0,1.3-0.1,1.8-0.2c0.5-0.1,0.9-0.3,1.2-0.5c0.3-0.2,0.6-0.5,0.7-0.8s0.2-0.7,0.2-1.1
	c0-0.4-0.1-0.8-0.4-1.1c-0.2-0.3-0.6-0.6-1-0.8s-0.9-0.5-1.4-0.7s-1-0.4-1.6-0.6c-0.5-0.2-1.1-0.5-1.6-0.7c-0.5-0.3-1-0.6-1.4-0.9
	c-0.4-0.3-0.7-0.8-1-1.2c-0.2-0.5-0.4-1-0.4-1.7c0-0.6,0.1-1.1,0.4-1.7c0.2-0.5,0.6-1,1.1-1.4s1.1-0.8,1.9-1
	c0.8-0.3,1.7-0.4,2.8-0.4c0.3,0,0.6,0,0.9,0s0.6,0.1,1,0.1c0.3,0,0.7,0.1,1,0.2c0.3,0.1,0.6,0.1,0.9,0.2v2c-0.6-0.2-1.3-0.3-1.9-0.4
	c-0.6-0.1-1.3-0.1-1.9-0.1c-1.3,0-2.2,0.2-2.8,0.6s-0.9,1-0.9,1.7c0,0.4,0.1,0.8,0.4,1.1c0.2,0.3,0.6,0.6,1,0.9
	c0.4,0.3,0.9,0.5,1.4,0.7s1,0.4,1.6,0.6c0.5,0.2,1.1,0.5,1.6,0.7c0.5,0.3,1,0.6,1.4,0.9c0.4,0.4,0.7,0.8,1,1.2
	C84.5,58.1,84.6,58.7,84.6,59.3z"/>
<path class="st0" d="M99.2,57.4c0,1-0.1,1.9-0.4,2.7s-0.7,1.5-1.2,2.1s-1.1,1-1.9,1.4C94.9,64,94.1,64,93.2,64s-1.7-0.1-2.4-0.4
	s-1.3-0.7-1.8-1.2s-0.9-1.2-1.1-2s-0.4-1.7-0.4-2.8c0-1,0.1-1.9,0.4-2.7s0.7-1.5,1.2-2.1s1.1-1,1.9-1.4s1.6-0.5,2.5-0.5
	s1.7,0.1,2.4,0.4s1.3,0.7,1.8,1.2s0.9,1.2,1.1,2S99.2,56.3,99.2,57.4z M96.9,57.5c0-0.8-0.1-1.5-0.3-2c-0.2-0.6-0.4-1.1-0.7-1.5
	c-0.3-0.4-0.7-0.7-1.2-0.9s-1-0.3-1.5-0.3c-0.7,0-1.2,0.1-1.7,0.4c-0.5,0.3-0.8,0.6-1.1,1s-0.5,0.9-0.7,1.5
	c-0.1,0.6-0.2,1.2-0.2,1.8c0,0.8,0.1,1.5,0.3,2c0.2,0.6,0.4,1.1,0.7,1.5c0.3,0.4,0.7,0.7,1.2,0.9s1,0.3,1.5,0.3
	c0.7,0,1.2-0.1,1.7-0.4c0.5-0.3,0.8-0.6,1.1-1s0.5-0.9,0.7-1.5S96.9,58.1,96.9,57.5z"/>
<path class="st0" d="M106.6,47.9h-3.7v-1.8h5.9V62h3.7v1.8h-10.1V62h4.1L106.6,47.9L106.6,47.9z"/>
<path class="st0" d="M124.5,63.8l-0.1-1.7c-0.7,0.7-1.4,1.2-2.1,1.5s-1.4,0.5-2.2,0.5c-0.7,0-1.3-0.1-1.8-0.3s-0.9-0.4-1.3-0.8
	c-0.3-0.3-0.6-0.7-0.7-1.1c-0.2-0.4-0.2-0.9-0.2-1.4c0-1.3,0.5-2.2,1.4-3c0.9-0.7,2.3-1.1,4.2-1.1h2.6v-1.1c0-0.7-0.2-1.3-0.7-1.8
	c-0.5-0.4-1.2-0.7-2.2-0.7c-0.7,0-1.4,0.1-2.1,0.2c-0.7,0.2-1.4,0.4-2.1,0.7v-2c0.3-0.1,0.6-0.2,0.9-0.3s0.7-0.2,1.1-0.3
	s0.8-0.1,1.2-0.2c0.4,0,0.8-0.1,1.2-0.1c0.8,0,1.4,0.1,2.1,0.3c0.6,0.2,1.1,0.4,1.5,0.8s0.7,0.8,1,1.3c0.2,0.5,0.3,1.1,0.3,1.8v8.7
	L124.5,63.8L124.5,63.8z M124.2,58h-2.8c-0.5,0-1,0.1-1.4,0.2c-0.4,0.1-0.7,0.3-1,0.5s-0.4,0.4-0.6,0.7c-0.1,0.3-0.2,0.6-0.2,0.9
	c0,0.2,0,0.5,0.1,0.7s0.2,0.4,0.4,0.6c0.2,0.2,0.4,0.3,0.7,0.4c0.3,0.1,0.6,0.2,1,0.2c0.5,0,1.1-0.2,1.7-0.5s1.3-0.8,2-1.4V58H124.2
	z"/>
<path class="st0" d="M131,51.2h2l0.1,2.3c0.7-0.9,1.5-1.5,2.2-1.9s1.4-0.6,2.2-0.6c1.3,0,2.3,0.4,3,1.3c0.7,0.8,1,2.1,0.9,3.8h-2.2
	c0-1.1-0.1-1.9-0.5-2.4c-0.3-0.5-0.9-0.7-1.5-0.7c-0.3,0-0.6,0.1-0.9,0.2s-0.6,0.3-0.9,0.5c-0.3,0.2-0.6,0.5-1,0.9s-0.7,0.8-1.1,1.3
	V64H131V51.2z"/>
<path class="st0" d="M154.9,63.8h-9.4V47.4h2.3v14.4h7.1L154.9,63.8L154.9,63.8z"/>
<path class="st0" d="M166.7,63.8l-0.1-1.7c-0.7,0.7-1.4,1.2-2.1,1.5c-0.7,0.3-1.4,0.5-2.2,0.5c-0.7,0-1.3-0.1-1.8-0.3
	s-0.9-0.4-1.3-0.8c-0.3-0.3-0.6-0.7-0.7-1.1s-0.2-0.9-0.2-1.4c0-1.3,0.5-2.2,1.4-3c0.9-0.7,2.3-1.1,4.2-1.1h2.6v-1.1
	c0-0.7-0.2-1.3-0.7-1.8s-1.2-0.7-2.2-0.7c-0.7,0-1.4,0.1-2.1,0.2c-0.7,0.2-1.4,0.4-2.1,0.7v-2c0.3-0.1,0.6-0.2,0.9-0.3
	s0.7-0.2,1.1-0.3s0.8-0.1,1.2-0.2c0.4,0,0.8-0.1,1.2-0.1c0.8,0,1.4,0.1,2.1,0.3s1.1,0.4,1.5,0.8s0.7,0.8,1,1.3
	c0.2,0.5,0.3,1.1,0.3,1.8v8.7L166.7,63.8L166.7,63.8z M166.5,58h-2.8c-0.5,0-1,0.1-1.4,0.2c-0.4,0.1-0.7,0.3-1,0.5s-0.4,0.4-0.6,0.7
	c-0.1,0.3-0.2,0.6-0.2,0.9c0,0.2,0,0.5,0.1,0.7s0.2,0.4,0.4,0.6s0.4,0.3,0.7,0.4c0.3,0.1,0.6,0.2,1,0.2c0.5,0,1.1-0.2,1.7-0.5
	c0.6-0.3,1.3-0.8,2-1.4V58H166.5z"/>
<path class="st0" d="M183.5,57.3c0,1-0.1,2-0.4,2.8s-0.7,1.5-1.2,2.1s-1.2,1-1.9,1.3c-0.8,0.3-1.6,0.5-2.6,0.5
	c-0.7,0-1.5-0.1-2.3-0.2c-0.8-0.1-1.5-0.4-2.3-0.7v-17h2.2V51l-0.1,2.3c0.6-0.8,1.3-1.4,2-1.8s1.5-0.5,2.3-0.5
	c0.7,0,1.3,0.2,1.9,0.5c0.5,0.3,1,0.7,1.4,1.3c0.4,0.5,0.6,1.2,0.8,2C183.4,55.4,183.5,56.3,183.5,57.3z M181.3,57.4
	c0-0.7,0-1.3-0.1-1.8c-0.1-0.6-0.2-1-0.5-1.4s-0.5-0.7-0.8-0.9s-0.7-0.3-1.2-0.3c-0.3,0-0.6,0-0.8,0.1s-0.6,0.2-0.9,0.4
	c-0.3,0.2-0.6,0.5-1,0.8s-0.7,0.8-1.1,1.3v6.1c0.4,0.2,0.9,0.3,1.3,0.4c0.4,0.1,0.9,0.1,1.3,0.1c0.5,0,1-0.1,1.4-0.2
	c0.5-0.2,0.9-0.4,1.2-0.8c0.3-0.4,0.6-0.9,0.8-1.5C181.2,59,181.3,58.3,181.3,57.4z"/>
<path class="st0" d="M187.4,51.3l1.4-1.4l8.4,7l-8.4,7l-1.4-1.4l6.8-5.6L187.4,51.3z"/>
<path class="st0" d="M213,67.1h-14.1v-1.8H213V67.1z"/>
<rect x="38.2" y="13" class="st0" width="6" height="2"/>
<rect x="38" y="20.4" class="st0" width="2" height="23.6"/>
<rect x="42" y="20.4" class="st0" width="2" height="25.1"/>
<polygon class="st0" points="56,79 54,79 54,65 49.1,65 49.1,53 44.3,53 44.3,51 51.1,51 51.1,63 56,63 "/>
<polygon class="st0" points="40,79 38,79 38,71 44,71 44,60 46,60 46,73 40,73 "/>
<polygon class="st0" points="32,79 30,79 30,63.8 38,63.8 38,51.7 40,51.7 40,65.9 32,65.9 "/>
<polygon class="st0" points="19,79 17,79 17,69 22,69 22,58 27,58 27,53 38,53 38,55 29,55 29,60 24,60 24,71 19,71 "/>
<path class="st0" d="M44.9,61L44.9,61c-0.6,0-1.1-0.2-1.5-0.6c-0.4-0.4-0.6-0.9-0.6-1.5s0.2-1.1,0.6-1.5c0.4-0.4,0.9-0.6,1.5-0.6
	l0,0l0,0c1.1,0,2.1,0.9,2.1,2.1c0,0.6-0.2,1.1-0.6,1.5S45.4,61,44.9,61z M44.9,57.8c-0.3,0-0.6,0.1-0.8,0.3s-0.3,0.5-0.3,0.8
	s0.1,0.6,0.3,0.8s0.5,0.3,0.8,0.3l0,0c0.3,0,0.6-0.1,0.8-0.3s0.3-0.5,0.3-0.8C46,58.3,45.5,57.8,44.9,57.8L44.9,57.8z"/>
<path class="st0" d="M54.5,82.5C54.4,82.5,54.4,82.5,54.5,82.5c-0.6,0-1.1-0.2-1.5-0.6s-0.6-0.9-0.6-1.5s0.2-1.1,0.6-1.5
	s0.9-0.6,1.5-0.6l0,0c1.1,0,2.1,0.9,2.1,2.1c0,0.6-0.2,1.1-0.6,1.5S55,82.5,54.5,82.5z M54.4,79.3c-0.3,0-0.6,0.1-0.8,0.3
	c-0.2,0.2-0.3,0.5-0.3,0.8s0.1,0.6,0.3,0.8c0.2,0.2,0.5,0.3,0.8,0.3l0,0c0.3,0,0.6-0.1,0.8-0.3c0.2-0.2,0.3-0.5,0.3-0.8
	C55.5,79.8,55,79.3,54.4,79.3C54.5,79.3,54.5,79.3,54.4,79.3z"/>
<path class="st0" d="M38.5,82.5L38.5,82.5c-0.6,0-1.1-0.2-1.5-0.6s-0.6-0.9-0.6-1.5s0.2-1.1,0.6-1.5s0.9-0.6,1.5-0.6l0,0
	c1.1,0,2.1,0.9,2.1,2.1c0,0.6-0.2,1.1-0.6,1.5C39.6,82.3,39.1,82.5,38.5,82.5z M38.5,79.3c-0.3,0-0.6,0.1-0.8,0.3
	c-0.2,0.2-0.3,0.5-0.3,0.8s0.1,0.6,0.3,0.8c0.2,0.2,0.5,0.3,0.8,0.3l0,0c0.3,0,0.6-0.1,0.8-0.3c0.2-0.2,0.3-0.5,0.3-0.8
	C39.6,79.8,39.1,79.3,38.5,79.3L38.5,79.3z"/>
<path class="st0" d="M31.3,82.5L31.3,82.5c-0.6,0-1.1-0.2-1.5-0.6s-0.6-0.9-0.6-1.5s0.2-1.1,0.6-1.5s0.9-0.6,1.5-0.6l0,0
	c1.1,0,2.1,0.9,2.1,2.1c0,0.6-0.2,1.1-0.6,1.5S31.9,82.5,31.3,82.5z M31.3,79.3c-0.3,0-0.6,0.1-0.8,0.3c-0.2,0.2-0.3,0.5-0.3,0.8
	s0.1,0.6,0.3,0.8c0.2,0.2,0.5,0.3,0.8,0.3l0,0c0.3,0,0.6-0.1,0.8-0.3c0.2-0.2,0.3-0.5,0.3-0.8C32.4,79.8,31.9,79.3,31.3,79.3
	L31.3,79.3z"/>
<path class="st0" d="M18.6,82.5L18.6,82.5c-0.6,0-1.1-0.2-1.5-0.6s-0.6-0.9-0.6-1.5s0.2-1.1,0.6-1.5s0.9-0.6,1.5-0.6l0,0
	c1.1,0,2.1,0.9,2.1,2.1c0,0.6-0.2,1.1-0.6,1.5S19.1,82.5,18.6,82.5z M18.6,79.3c-0.3,0-0.6,0.1-0.8,0.3c-0.2,0.2-0.3,0.5-0.3,0.8
	s0.1,0.6,0.3,0.8c0.2,0.2,0.5,0.3,0.8,0.3l0,0c0.3,0,0.6-0.1,0.8-0.3c0.2-0.2,0.3-0.5,0.3-0.8C19.6,79.8,19.2,79.3,18.6,79.3
	L18.6,79.3z"/>
<path class="st0" d="M45.6,16.3L45.6,16.3c-0.6,0-1.1-0.2-1.5-0.6s-0.6-0.9-0.6-1.5c0-1.2,0.9-2.1,2.1-2.1l0,0l0,0
	c0.6,0,1.1,0.2,1.5,0.6c0.4,0.4,0.6,0.9,0.6,1.5s-0.2,1.1-0.6,1.5C46.7,16.1,46.2,16.3,45.6,16.3z M45.6,13.1
	c-0.3,0-0.6,0.1-0.8,0.3s-0.3,0.5-0.3,0.8s0.1,0.6,0.3,0.8s0.5,0.3,0.8,0.3s0.6-0.1,0.8-0.3s0.3-0.5,0.3-0.8s-0.1-0.6-0.3-0.8
	C46.2,13.2,45.9,13.1,45.6,13.1L45.6,13.1L45.6,13.1z"/>
<path class="st0" d="M36.9,16.3L36.9,16.3c-1.1,0-2.1-0.9-2.1-2.1c0-0.6,0.2-1.1,0.6-1.5s0.9-0.6,1.5-0.6l0,0c0.6,0,1.1,0.2,1.5,0.6
	c0.4,0.4,0.6,0.9,0.6,1.5s-0.2,1.1-0.6,1.5S37.5,16.3,36.9,16.3z M36.9,13.1c-0.3,0-0.6,0.1-0.8,0.3s-0.3,0.5-0.3,0.8
	c0,0.6,0.5,1.1,1.1,1.1l0,0c0.3,0,0.6-0.1,0.8-0.3s0.3-0.5,0.3-0.8s-0.1-0.6-0.3-0.8C37.5,13.2,37.2,13.1,36.9,13.1L36.9,13.1
	L36.9,13.1z"/>
<path class="st0" d="M43.3,21.1L43.3,21.1c-1.1,0-2.1-0.9-2.1-2.1s0.9-2.1,2.1-2.1l0,0l0,0c1.1,0,2.1,0.9,2.1,2.1
	C45.4,20.2,44.4,21.1,43.3,21.1z M43.3,17.9c-0.6,0-1.1,0.5-1.1,1.1s0.5,1.1,1.1,1.1l0,0c0.6,0,1.1-0.5,1.1-1.1
	C44.4,18.4,43.9,17.9,43.3,17.9L43.3,17.9z"/>
<path class="st0" d="M39.3,21.1L39.3,21.1c-1.1,0-2.1-0.9-2.1-2.1s0.9-2.1,2.1-2.1l0,0l0,0c1.1,0,2.1,0.9,2.1,2.1
	C41.4,20.2,40.4,21.1,39.3,21.1z M39.3,17.9c-0.6,0-1.1,0.5-1.1,1.1s0.5,1.1,1.1,1.1l0,0c0.6,0,1.1-0.5,1.1-1.1
	C40.4,18.4,39.9,17.9,39.3,17.9L39.3,17.9z"/>
<path class="st0" d="M39.3,47.4L39.3,47.4c-0.6,0-1.1-0.2-1.5-0.6c-0.4-0.4-0.6-0.9-0.6-1.5s0.2-1.1,0.6-1.5
	c0.4-0.4,0.9-0.6,1.5-0.6c1.1,0,2.1,0.9,2.1,2.1c0,0.6-0.2,1.1-0.6,1.5C40.4,47.2,39.9,47.4,39.3,47.4z M39.3,44.2
	c-0.3,0-0.6,0.1-0.8,0.3s-0.3,0.5-0.3,0.8s0.1,0.6,0.3,0.8s0.5,0.3,0.8,0.3l0,0c0.3,0,0.6-0.1,0.8-0.3s0.3-0.5,0.3-0.8
	C40.4,44.7,39.9,44.2,39.3,44.2L39.3,44.2z"/>
<path class="st0" d="M43.3,49L43.3,49c-1.1,0-2.1-0.9-2.1-2.1c0-0.6,0.2-1.1,0.6-1.5s0.9-0.6,1.5-0.6l0,0c1.1,0,2.1,0.9,2.1,2.1
	c0,0.6-0.2,1.1-0.6,1.5C44.4,48.8,43.8,49,43.3,49z M43.3,45.8c-0.3,0-0.6,0.1-0.8,0.3s-0.3,0.5-0.3,0.8c0,0.6,0.5,1.1,1.1,1.1
	c0.3,0,0.6-0.1,0.8-0.3s0.3-0.5,0.3-0.8C44.4,46.3,43.9,45.8,43.3,45.8L43.3,45.8L43.3,45.8z"/>
<path class="st0" d="M39.3,52.2L39.3,52.2c-1.1,0-2.1-0.9-2.1-2.1c0-0.6,0.2-1.1,0.6-1.5s0.9-0.6,1.5-0.6l0,0c0.6,0,1.1,0.2,1.5,0.6
	c0.4,0.4,0.6,0.9,0.6,1.5s-0.2,1.1-0.6,1.5C40.4,52,39.9,52.2,39.3,52.2z M39.3,49c-0.3,0-0.6,0.1-0.8,0.3s-0.3,0.5-0.3,0.8
	c0,0.6,0.5,1.1,1.1,1.1l0,0c0.3,0,0.6-0.1,0.8-0.3s0.3-0.5,0.3-0.8s-0.1-0.6-0.3-0.8C39.9,49.1,39.6,49,39.3,49L39.3,49L39.3,49z"/>
<path class="st0" d="M43.3,53.8L43.3,53.8c-1.1,0-2.1-0.9-2.1-2.1c0-0.6,0.2-1.1,0.6-1.5s0.9-0.6,1.5-0.6l0,0c1.1,0,2.1,0.9,2.1,2.1
	C45.4,52.8,44.4,53.8,43.3,53.8z M43.3,50.6c-0.3,0-0.6,0.1-0.8,0.3s-0.3,0.5-0.3,0.8c0,0.6,0.5,1.1,1.1,1.1l0,0
	c0.6,0,1.1-0.5,1.1-1.1C44.4,51.1,43.9,50.6,43.3,50.6L43.3,50.6L43.3,50.6z"/>
</svg>
