<?xml version="1.0" encoding="utf-8"?>
<!-- Generator: Adobe Illustrator 21.0.1, SVG Export Plug-In . SVG Version: 6.00 Build 0)  -->
<svg version="1.1" id="Слой_1" xmlns="http://www.w3.org/2000/svg" xmlns:xlink="http://www.w3.org/1999/xlink" x="0px" y="0px"
	 viewBox="0 0 100 100" style="enable-background:new 0 0 100 100;" xml:space="preserve">
<g>
	<path d="M74,62v-8c0-1.7-1.3-3-3-3h-5v2h5c0.6,0,1,0.4,1,1v8h-8v22h18V65.6L78.4,62H74z M80,82H66V64h11.6l2.4,2.4V82z"/>
	<path d="M28,62v-8c0-0.6,0.4-1,1-1h5v-2h-5c-1.7,0-3,1.3-3,3v8h-8v22h18V65.6L32.4,62H28z M20,70.5l6.5-6.5h4.2L20,74.8V70.5z
		 M23.7,64L20,67.7V64H23.7z M20,82L20,82L20,82L20,82z M34,74.9L26.9,82h-4.2L34,70.7V74.9z M29.7,82l4.3-4.3V82H29.7z M34,67.8
		l-14,14v-4.2L32.6,65l1.4,1.4V67.8z"/>
	<path d="M72,37.9V46c0,0.6-0.4,1-1,1h-5v2h5c1.7,0,3-1.3,3-3v-8.1c4.5-0.5,8-4.3,8-8.9c0-5-4-9-9-9s-9,4-9,9
		C64,33.6,67.5,37.4,72,37.9z M73,22c3.9,0,7,3.1,7,7c0,3.9-3.1,7-7,7c-3.9,0-7-3.1-7-7C66,25.1,69.1,22,73,22z"/>
	<path d="M26,37.9V46c0,1.7,1.3,3,3,3h5v-2h-5c-0.6,0-1-0.4-1-1v-8.1c4.5-0.5,8-4.3,8-8.9c0-5-4-9-9-9s-9,4-9,9
		C18,33.6,21.5,37.4,26,37.9z M27,22c3.9,0,7,3.1,7,7c0,3.9-3.1,7-7,7c-3.9,0-7-3.1-7-7C20,25.1,23.1,22,27,22z"/>
	<path d="M64,45c0-1.7-1.3-3-3-3H51v-4.1c4.5-0.5,8-4.3,8-8.9c0-5-4-9-9-9s-9,4-9,9c0,4.6,3.5,8.4,8,8.9V42H39c-1.7,0-3,1.3-3,3v10
		c0,1.7,1.3,3,3,3h10v4h-8v22h18V65.6L55.4,62H51v-4h10c1.7,0,3-1.3,3-3V45z M43,29c0-3.9,3.1-7,7-7c3.9,0,7,3.1,7,7
		c0,3.9-3.1,7-7,7C46.1,36,43,32.9,43,29z M57,66.4V68h-2v2h2v4h-2v2h2v4h-2v2h-4v-2h-2v2h-4v-2h-2v-4h2v-2h-2v-4h2v-2h-2v-4h11.6
		L57,66.4z M62,55c0,0.6-0.4,1-1,1H39c-0.6,0-1-0.4-1-1V45c0-0.6,0.4-1,1-1h22c0.6,0,1,0.4,1,1V55z"/>
	<rect x="49" y="49" width="2" height="2"/>
	<rect x="45" y="49" width="2" height="2"/>
	<rect x="53" y="49" width="2" height="2"/>
	<rect x="46" y="77" width="2" height="2"/>
	<rect x="52" y="77" width="2" height="2"/>
	<rect x="46" y="71" width="2" height="2"/>
	<rect x="49" y="74" width="2" height="2"/>
	<rect x="52" y="71" width="2" height="2"/>
	<rect x="46" y="65" width="2" height="2"/>
	<rect x="49" y="68" width="2" height="2"/>
	<rect x="52" y="65" width="2" height="2"/>
</g>
</svg>
