<?xml version="1.0" encoding="utf-8"?>
<!-- Generator: Adobe Illustrator 21.0.1, SVG Export Plug-In . SVG Version: 6.00 Build 0)  -->
<svg version="1.1" id="Слой_1" xmlns="http://www.w3.org/2000/svg" xmlns:xlink="http://www.w3.org/1999/xlink" x="0px" y="0px"
	 viewBox="0 0 100 100" style="enable-background:new 0 0 100 100;" xml:space="preserve">
<g>
	<path d="M34,67.5c-0.3,0-0.5,0-0.8-0.1c-0.8-0.3-1.3-1-1.3-1.9V60h-1c-2.8,0-5-2.2-5-5V32c0-2.8,2.2-5,5-5h29c2.8,0,5,2.2,5,5v23
		c0,2.8-2.2,5-5,5H42.1l-6.7,6.9C35.1,67.3,34.5,67.5,34,67.5z M31,29c-1.7,0-3,1.3-3,3v23c0,1.7,1.3,3,3,3h2c0.6,0,1,0.4,1,1v6.5
		l7-7.2c0.2-0.2,0.4-0.3,0.7-0.3H60c1.7,0,3-1.3,3-3V32c0-1.7-1.3-3-3-3H31z"/>
	<path d="M66,72.6c-0.5,0-1-0.2-1.4-0.6l-6-6H50c-2.8,0-5-2.2-5-5h2c0,1.7,1.3,3,3,3h9c0.3,0,0.5,0.1,0.7,0.3l6.3,6.3V65
		c0-0.6,0.4-1,1-1h2c1.7,0,3-1.3,3-3V46c0-1.7-1.3-3-3-3h-3v-2h3c2.8,0,5,2.2,5,5v15c0,2.8-2.2,5-5,5h-1v4.6c0,0.8-0.5,1.5-1.2,1.8
		C66.5,72.5,66.3,72.6,66,72.6z"/>
	<path d="M46.9,56h-2.8c-1,0-2.1-0.8-2.1-1.9v-1.5c-0.2-0.1-0.3-0.1-0.5-0.2l-0.2-0.1l-1,1c-0.7,0.8-2,0.8-2.7,0l-1.9-1.9
		c-0.4-0.4-0.6-0.8-0.6-1.4c0-0.5,0.2-1,0.6-1.4l1-1l0,0c-0.1-0.2-0.2-0.4-0.3-0.6l-1.4,0c-1.1,0-1.9-1.1-1.9-2.1v-2.8
		c0-1,0.8-2.1,1.9-2.1h1.4c0.1-0.2,0.2-0.4,0.3-0.6l0.1-0.2l-1-1c-0.7-0.7-0.7-2,0-2.7l2-2c0.7-0.7,2-0.7,2.7,0l1,1l0.1,0
		c0.2-0.1,0.4-0.2,0.6-0.3l0-1.4c0-1.1,1.1-1.9,2.1-1.9h2.8c1,0,2.1,0.8,2.1,1.9v1.4c0.2,0.1,0.3,0.1,0.5,0.2l0.2,0.1l1-1
		c0.4-0.4,0.8-0.6,1.4-0.6c0,0,0,0,0,0c0.5,0,1,0.2,1.4,0.6l2,2c0.7,0.7,0.7,2,0,2.7l-1,1c0.1,0.2,0.2,0.5,0.3,0.7l1.4,0
		c1.1,0,1.9,1.1,1.9,2.1v2.8c0,1-0.8,2.1-1.9,2.1h-1.4c-0.1,0.2-0.2,0.4-0.3,0.5l-0.1,0.1l1,1c0.4,0.4,0.6,0.8,0.6,1.4
		c0,0.5-0.2,1-0.6,1.4l-1.9,1.9c-0.7,0.7-2,0.7-2.7,0l-1-1l-0.1,0c-0.2,0.1-0.4,0.2-0.6,0.3l0,1.5C49,55.2,47.9,56,46.9,56z M44,54
		c0,0,0.1,0,0.1,0h2.8c0,0,0.1,0,0.1,0v-1.4c0-0.9,0.5-1.5,1.2-1.8c0.2-0.1,0.3-0.1,0.5-0.2l0.1-0.1c0.8-0.4,1.6-0.2,2.2,0.4l1,1
		l1.8-1.8l-1-0.9c-0.6-0.6-0.7-1.5-0.4-2.3l0.1-0.2c0.1-0.1,0.1-0.2,0.1-0.3c0.3-0.8,1-1.2,1.8-1.2H56c0,0,0-0.1,0-0.1v-2.8
		c0,0,0-0.1,0-0.1h-1.3c-0.9,0-1.6-0.5-1.8-1.2c-0.1-0.2-0.2-0.4-0.2-0.5c-0.4-0.8-0.3-1.7,0.3-2.3l1-1L52,35.1l-1,1
		c-0.6,0.6-1.5,0.7-2.2,0.4c-0.1,0-0.2-0.1-0.3-0.1c-0.1-0.1-0.2-0.1-0.3-0.2c-0.8-0.3-1.2-0.9-1.2-1.8V33c0,0-0.1,0-0.1,0h-2.8
		c0,0-0.1,0-0.1,0v1.3c0,0.9-0.5,1.6-1.2,1.8c-0.2,0.1-0.3,0.1-0.5,0.2l-0.1,0.1c-0.7,0.4-1.6,0.2-2.2-0.4l-1-1l-1.8,1.8l1,1
		c0.6,0.6,0.7,1.5,0.3,2.2l-0.1,0.2c-0.1,0.1-0.1,0.2-0.2,0.4C38,41.5,37.3,42,36.4,42H35c0,0,0,0.1,0,0.1v2.8c0,0,0,0.1,0,0.1h1.3
		c0.9,0,1.6,0.5,1.8,1.2c0.1,0.2,0.1,0.3,0.2,0.5l0.1,0.1c0.4,0.7,0.3,1.6-0.3,2.2l-1,0.9l1.8,1.8l1-1c0.6-0.6,1.5-0.7,2.2-0.4
		c0.1,0,0.2,0.1,0.3,0.1c0.1,0.1,0.2,0.1,0.3,0.2c0.7,0.3,1.2,1,1.2,1.8V54z M53.9,49.9L53.9,49.9L53.9,49.9L53.9,49.9z"/>
	<path d="M45.5,48C43,48,41,46,41,43.5s2-4.5,4.5-4.5s4.5,2,4.5,4.5S48,48,45.5,48z M45.5,41c-1.4,0-2.5,1.1-2.5,2.5
		s1.1,2.5,2.5,2.5s2.5-1.1,2.5-2.5S46.9,41,45.5,41z"/>
</g>
</svg>
