<svg xmlns="http://www.w3.org/2000/svg" width="27.94" height="16.69" viewBox="0 0 27.94 16.69">
  <metadata><?xpacket begin="﻿" id="W5M0MpCehiHzreSzNTczkc9d"?>
<x:xmpmeta xmlns:x="adobe:ns:meta/" x:xmptk="Adobe XMP Core 5.6-c138 79.159824, 2016/09/14-01:09:01        ">
   <rdf:RDF xmlns:rdf="http://www.w3.org/1999/02/22-rdf-syntax-ns#">
      <rdf:Description rdf:about=""/>
   </rdf:RDF>
</x:xmpmeta>
                                                                                                    
                                                                                                    
                                                                                                    
                                                                                                    
                                                                                                    
                                                                                                    
                                                                                                    
                                                                                                    
                                                                                                    
                                                                                                    
                                                                                                    
                                                                                                    
                                                                                                    
                                                                                                    
                                                                                                    
                                                                                                    
                                                                                                    
                                                                                                    
                                                                                                    
                                                                                                    
                           
<?xpacket end="w"?></metadata>
<defs>
    <style>
      .cls-1 {
        fill: #6a80e7;
        fill-rule: evenodd;
      }
    </style>
  </defs>
  <path id="vk" class="cls-1" d="M1463.69,3833.78h1.67a1.344,1.344,0,0,0,.76-0.34,1.288,1.288,0,0,0,.23-0.76s-0.03-2.33,1.01-2.67c1.02-.34,2.34,2.25,3.74,3.24a2.578,2.578,0,0,0,1.85.59l3.74-.06s1.95-.12,1.02-1.71a12.614,12.614,0,0,0-2.77-3.34c-2.34-2.25-2.03-1.89.79-5.79,1.72-2.38,2.4-3.83,2.19-4.45-0.21-.59-1.47-0.43-1.47-0.43l-4.2.02a0.948,0.948,0,0,0-.54.1,1.162,1.162,0,0,0-.37.47,25.7,25.7,0,0,1-1.56,3.4c-1.87,3.3-2.62,3.48-2.92,3.27-0.71-.48-0.54-1.92-0.54-2.94,0-3.2.47-4.53-.91-4.87a6.469,6.469,0,0,0-1.95-.21,8.956,8.956,0,0,0-3.49.37c-0.48.24-.85,0.79-0.63,0.82a1.905,1.905,0,0,1,1.25.65,4.3,4.3,0,0,1,.41,1.97s0.25,3.76-.58,4.23c-0.56.32-1.34-.33-3.01-3.33a29.241,29.241,0,0,1-1.5-3.22,1.277,1.277,0,0,0-.34-0.49,1.809,1.809,0,0,0-.65-0.27l-3.99.03a1.275,1.275,0,0,0-.82.29,0.9,0.9,0,0,0-.02.73s3.13,7.6,6.67,11.43a9.357,9.357,0,0,0,6.93,3.27h0Zm0,0" transform="translate(-1450 -3817.31)"/>
</svg>
