<svg xmlns="http://www.w3.org/2000/svg" viewBox="0 0 100 100"><path d="M81 78.2l.1-.1-.1-.1V54.7L72.4 46H62V18h-2v28h-2V31h-8v2h6v17h-3v2h10v-2h-5v-2h13.6l6 6H26.4l-6-6H36v-2H17v27.4l8.6 8.6H81v-3.8zM76.4 80h-4.2l6.8-6.8v4.2L76.4 80zm2.6-9l-.3-.3-9.4 9.3h-4.2L79 66.1V71zm-52-9.5l5.5-5.5h4.2L27 65.8v-4.3zm0 7.1L39.6 56h4.2L27 72.8v-4.2zM46.7 56h4.2L27 79.9v-4.2L46.7 56zm7 0H58L34 80h-4.3l24-24zm7.1 0H65L41 80h-4.2l24-24zm7.1 0h4.2l-24 24h-4.2l24-24zm7 0H79v.2L55.2 80H51l23.9-24zm-45.2 0L27 58.7V56h2.7zM19 49.4l6 6v19.4l-.1.1.1.1v3.6l-6-6V49.4zM79 59v4.2L62.3 80H58l21-21z"/><path d="M38 50h-4v2h9v-2h-3V33h2v2c0 1.7 1.3 3 3 3s3-1.3 3-3v-3.5l6-4V24h-2v2.5l-6 4V35c0 .6-.4 1-1 1s-1-.4-1-1v-7.6l5-5V18h-2v3.6l-5 5V31h-4v19z"/><path d="M52.4 39.6l-5.2 5.2-2.6-2.6-1.4 1.4 4.2 4.2 1.4-1.4L54 41z"/></svg>