<svg id="Слой_1" xmlns="http://www.w3.org/2000/svg" viewBox="0 0 223 102"><style>.st0{fill:#fff}</style><path class="st0" d="M84.6 59.3c0 .8-.2 1.5-.5 2-.3.6-.8 1.1-1.3 1.5-.6.4-1.2.7-2 .9-.8.2-1.7.3-2.7.3-.4 0-.9 0-1.3-.1s-.8-.1-1.2-.1-.8-.1-1.1-.2c-.4-.1-.7-.1-1-.2v-2.2c.6.2 1.3.4 2.1.6.8.1 1.7.2 2.7.2.7 0 1.3-.1 1.8-.2s.9-.3 1.2-.5c.3-.2.6-.5.7-.8s.2-.7.2-1.1c0-.4-.1-.8-.4-1.1-.2-.3-.6-.6-1-.8s-.9-.5-1.4-.7-1-.4-1.6-.6c-.5-.2-1.1-.5-1.6-.7-.5-.3-1-.6-1.4-.9-.4-.3-.7-.8-1-1.2-.2-.5-.4-1-.4-1.7 0-.6.1-1.1.4-1.7.2-.5.6-1 1.1-1.4s1.1-.8 1.9-1c.8-.3 1.7-.4 2.8-.4h.9c.3 0 .6.1 1 .1.3 0 .7.1 1 .2.3.1.6.1.9.2v2c-.6-.2-1.3-.3-1.9-.4-.6-.1-1.3-.1-1.9-.1-1.3 0-2.2.2-2.8.6s-.9 1-.9 1.7c0 .4.1.8.4 1.1.2.3.6.6 1 .9.4.3.9.5 1.4.7s1 .4 1.6.6c.5.2 1.1.5 1.6.7.5.3 1 .6 1.4.9.4.4.7.8 1 1.2.2.5.3 1.1.3 1.7zm14.6-1.9c0 1-.1 1.9-.4 2.7s-.7 1.5-1.2 2.1-1.1 1-1.9 1.4c-.8.4-1.6.4-2.5.4s-1.7-.1-2.4-.4-1.3-.7-1.8-1.2-.9-1.2-1.1-2-.4-1.7-.4-2.8c0-1 .1-1.9.4-2.7s.7-1.5 1.2-2.1 1.1-1 1.9-1.4 1.6-.5 2.5-.5 1.7.1 2.4.4 1.3.7 1.8 1.2.9 1.2 1.1 2 .4 1.8.4 2.9zm-2.3.1c0-.8-.1-1.5-.3-2-.2-.6-.4-1.1-.7-1.5-.3-.4-.7-.7-1.2-.9s-1-.3-1.5-.3c-.7 0-1.2.1-1.7.4-.5.3-.8.6-1.1 1s-.5.9-.7 1.5c-.1.6-.2 1.2-.2 1.8 0 .8.1 1.5.3 2 .2.6.4 1.1.7 1.5.3.4.7.7 1.2.9s1 .3 1.5.3c.7 0 1.2-.1 1.7-.4.5-.3.8-.6 1.1-1s.5-.9.7-1.5.2-1.2.2-1.8zm9.7-9.6h-3.7v-1.8h5.9V62h3.7v1.8h-10.1V62h4.1l.1-14.1zm17.9 15.9l-.1-1.7c-.7.7-1.4 1.2-2.1 1.5s-1.4.5-2.2.5c-.7 0-1.3-.1-1.8-.3s-.9-.4-1.3-.8c-.3-.3-.6-.7-.7-1.1-.2-.4-.2-.9-.2-1.4 0-1.3.5-2.2 1.4-3 .9-.7 2.3-1.1 4.2-1.1h2.6v-1.1c0-.7-.2-1.3-.7-1.8-.5-.4-1.2-.7-2.2-.7-.7 0-1.4.1-2.1.2-.7.2-1.4.4-2.1.7v-2l.9-.3c.3-.1.7-.2 1.1-.3s.8-.1 1.2-.2c.4 0 .8-.1 1.2-.1.8 0 1.4.1 2.1.3.6.2 1.1.4 1.5.8s.7.8 1 1.3c.2.5.3 1.1.3 1.8v8.7l-2 .1zm-.3-5.8h-2.8c-.5 0-1 .1-1.4.2-.4.1-.7.3-1 .5s-.4.4-.6.7c-.1.3-.2.6-.2.9 0 .2 0 .5.1.7s.2.4.4.6c.2.2.4.3.7.4.3.1.6.2 1 .2.5 0 1.1-.2 1.7-.5s1.3-.8 2-1.4V58h.1zm6.8-6.8h2l.1 2.3c.7-.9 1.5-1.5 2.2-1.9s1.4-.6 2.2-.6c1.3 0 2.3.4 3 1.3.7.8 1 2.1.9 3.8h-2.2c0-1.1-.1-1.9-.5-2.4-.3-.5-.9-.7-1.5-.7-.3 0-.6.1-.9.2s-.6.3-.9.5c-.3.2-.6.5-1 .9s-.7.8-1.1 1.3V64H131V51.2zm23.9 12.6h-9.4V47.4h2.3v14.4h7.1v2zm11.8 0l-.1-1.7c-.7.7-1.4 1.2-2.1 1.5-.7.3-1.4.5-2.2.5-.7 0-1.3-.1-1.8-.3s-.9-.4-1.3-.8c-.3-.3-.6-.7-.7-1.1s-.2-.9-.2-1.4c0-1.3.5-2.2 1.4-3 .9-.7 2.3-1.1 4.2-1.1h2.6v-1.1c0-.7-.2-1.3-.7-1.8s-1.2-.7-2.2-.7c-.7 0-1.4.1-2.1.2-.7.2-1.4.4-2.1.7v-2l.9-.3c.3-.1.7-.2 1.1-.3s.8-.1 1.2-.2c.4 0 .8-.1 1.2-.1.8 0 1.4.1 2.1.3s1.1.4 1.5.8.7.8 1 1.3c.2.5.3 1.1.3 1.8v8.7l-2 .1zm-.2-5.8h-2.8c-.5 0-1 .1-1.4.2-.4.1-.7.3-1 .5s-.4.4-.6.7c-.1.3-.2.6-.2.9 0 .2 0 .5.1.7s.2.4.4.6.4.3.7.4c.3.1.6.2 1 .2.5 0 1.1-.2 1.7-.5.6-.3 1.3-.8 2-1.4V58h.1zm17-.7c0 1-.1 2-.4 2.8s-.7 1.5-1.2 2.1-1.2 1-1.9 1.3c-.8.3-1.6.5-2.6.5-.7 0-1.5-.1-2.3-.2-.8-.1-1.5-.4-2.3-.7v-17h2.2V51l-.1 2.3c.6-.8 1.3-1.4 2-1.8s1.5-.5 2.3-.5c.7 0 1.3.2 1.9.5.5.3 1 .7 1.4 1.3.4.5.6 1.2.8 2 .1.6.2 1.5.2 2.5zm-2.2.1c0-.7 0-1.3-.1-1.8-.1-.6-.2-1-.5-1.4s-.5-.7-.8-.9-.7-.3-1.2-.3c-.3 0-.6 0-.8.1s-.6.2-.9.4c-.3.2-.6.5-1 .8s-.7.8-1.1 1.3v6.1c.4.2.9.3 1.3.4.4.1.9.1 1.3.1.5 0 1-.1 1.4-.2.5-.2.9-.4 1.2-.8.3-.4.6-.9.8-1.5.3-.7.4-1.4.4-2.3zm6.1-6.1l1.4-1.4 8.4 7-8.4 7-1.4-1.4 6.8-5.6-6.8-5.6zM213 67.1h-14.1v-1.8H213v1.8zM38.2 13h6v2h-6zm-.2 7.4h2V44h-2zm4 0h2v25.1h-2zM56 79h-2V65h-4.9V53h-4.8v-2h6.8v12H56zm-16 0h-2v-8h6V60h2v13h-6zm-8 0h-2V63.8h8V51.7h2v14.2h-8z"/><path class="st0" d="M19 79h-2V69h5V58h5v-5h11v2h-9v5h-5v11h-5zm25.9-18c-.6 0-1.1-.2-1.5-.6-.4-.4-.6-.9-.6-1.5s.2-1.1.6-1.5c.4-.4.9-.6 1.5-.6 1.1 0 2.1.9 2.1 2.1 0 .6-.2 1.1-.6 1.5s-1 .6-1.5.6zm0-3.2c-.3 0-.6.1-.8.3s-.3.5-.3.8.1.6.3.8.5.3.8.3c.3 0 .6-.1.8-.3s.3-.5.3-.8c0-.6-.5-1.1-1.1-1.1zm9.6 24.7c-.1 0-.1 0 0 0-.6 0-1.1-.2-1.5-.6s-.6-.9-.6-1.5.2-1.1.6-1.5.9-.6 1.5-.6c1.1 0 2.1.9 2.1 2.1 0 .6-.2 1.1-.6 1.5s-1 .6-1.5.6zm-.1-3.2c-.3 0-.6.1-.8.3-.2.2-.3.5-.3.8s.1.6.3.8c.2.2.5.3.8.3.3 0 .6-.1.8-.3.2-.2.3-.5.3-.8 0-.6-.5-1.1-1.1-1.1.1 0 .1 0 0 0zm-15.9 3.2c-.6 0-1.1-.2-1.5-.6s-.6-.9-.6-1.5.2-1.1.6-1.5.9-.6 1.5-.6c1.1 0 2.1.9 2.1 2.1 0 .6-.2 1.1-.6 1.5-.4.4-.9.6-1.5.6zm0-3.2c-.3 0-.6.1-.8.3-.2.2-.3.5-.3.8s.1.6.3.8c.2.2.5.3.8.3.3 0 .6-.1.8-.3.2-.2.3-.5.3-.8 0-.6-.5-1.1-1.1-1.1zm-7.2 3.2c-.6 0-1.1-.2-1.5-.6s-.6-.9-.6-1.5.2-1.1.6-1.5.9-.6 1.5-.6c1.1 0 2.1.9 2.1 2.1 0 .6-.2 1.1-.6 1.5s-.9.6-1.5.6zm0-3.2c-.3 0-.6.1-.8.3-.2.2-.3.5-.3.8s.1.6.3.8c.2.2.5.3.8.3.3 0 .6-.1.8-.3.2-.2.3-.5.3-.8 0-.6-.5-1.1-1.1-1.1z"/><path class="st0" d="M18.6 82.5c-.6 0-1.1-.2-1.5-.6s-.6-.9-.6-1.5.2-1.1.6-1.5.9-.6 1.5-.6c1.1 0 2.1.9 2.1 2.1 0 .6-.2 1.1-.6 1.5s-1 .6-1.5.6zm0-3.2c-.3 0-.6.1-.8.3-.2.2-.3.5-.3.8s.1.6.3.8c.2.2.5.3.8.3.3 0 .6-.1.8-.3.2-.2.3-.5.3-.8-.1-.6-.5-1.1-1.1-1.1zm27-63c-.6 0-1.1-.2-1.5-.6s-.6-.9-.6-1.5c0-1.2.9-2.1 2.1-2.1.6 0 1.1.2 1.5.6.4.4.6.9.6 1.5s-.2 1.1-.6 1.5c-.4.4-.9.6-1.5.6zm0-3.2c-.3 0-.6.1-.8.3s-.3.5-.3.8.1.6.3.8.5.3.8.3.6-.1.8-.3.3-.5.3-.8-.1-.6-.3-.8c-.2-.2-.5-.3-.8-.3zm-8.7 3.2c-1.1 0-2.1-.9-2.1-2.1 0-.6.2-1.1.6-1.5s.9-.6 1.5-.6 1.1.2 1.5.6c.4.4.6.9.6 1.5s-.2 1.1-.6 1.5-.9.6-1.5.6zm0-3.2c-.3 0-.6.1-.8.3s-.3.5-.3.8c0 .6.5 1.1 1.1 1.1.3 0 .6-.1.8-.3s.3-.5.3-.8-.1-.6-.3-.8c-.2-.2-.5-.3-.8-.3zm6.4 8c-1.1 0-2.1-.9-2.1-2.1s.9-2.1 2.1-2.1c1.1 0 2.1.9 2.1 2.1 0 1.2-1 2.1-2.1 2.1zm0-3.2c-.6 0-1.1.5-1.1 1.1s.5 1.1 1.1 1.1c.6 0 1.1-.5 1.1-1.1 0-.6-.5-1.1-1.1-1.1z"/><path class="st0" d="M39.3 21.1c-1.1 0-2.1-.9-2.1-2.1s.9-2.1 2.1-2.1c1.1 0 2.1.9 2.1 2.1 0 1.2-1 2.1-2.1 2.1zm0-3.2c-.6 0-1.1.5-1.1 1.1s.5 1.1 1.1 1.1c.6 0 1.1-.5 1.1-1.1 0-.6-.5-1.1-1.1-1.1zm0 29.5c-.6 0-1.1-.2-1.5-.6-.4-.4-.6-.9-.6-1.5s.2-1.1.6-1.5c.4-.4.9-.6 1.5-.6 1.1 0 2.1.9 2.1 2.1 0 .6-.2 1.1-.6 1.5-.4.4-.9.6-1.5.6zm0-3.2c-.3 0-.6.1-.8.3s-.3.5-.3.8.1.6.3.8.5.3.8.3c.3 0 .6-.1.8-.3s.3-.5.3-.8c0-.6-.5-1.1-1.1-1.1z"/><path class="st0" d="M43.3 49c-1.1 0-2.1-.9-2.1-2.1 0-.6.2-1.1.6-1.5s.9-.6 1.5-.6c1.1 0 2.1.9 2.1 2.1 0 .6-.2 1.1-.6 1.5-.4.4-1 .6-1.5.6zm0-3.2c-.3 0-.6.1-.8.3s-.3.5-.3.8c0 .6.5 1.1 1.1 1.1.3 0 .6-.1.8-.3s.3-.5.3-.8c0-.6-.5-1.1-1.1-1.1zm-4 6.4c-1.1 0-2.1-.9-2.1-2.1 0-.6.2-1.1.6-1.5s.9-.6 1.5-.6 1.1.2 1.5.6c.4.4.6.9.6 1.5s-.2 1.1-.6 1.5c-.4.4-.9.6-1.5.6zm0-3.2c-.3 0-.6.1-.8.3s-.3.5-.3.8c0 .6.5 1.1 1.1 1.1.3 0 .6-.1.8-.3s.3-.5.3-.8-.1-.6-.3-.8c-.2-.2-.5-.3-.8-.3zm4 4.8c-1.1 0-2.1-.9-2.1-2.1 0-.6.2-1.1.6-1.5s.9-.6 1.5-.6c1.1 0 2.1.9 2.1 2.1 0 1.1-1 2.1-2.1 2.1zm0-3.2c-.3 0-.6.1-.8.3s-.3.5-.3.8c0 .6.5 1.1 1.1 1.1.6 0 1.1-.5 1.1-1.1 0-.6-.5-1.1-1.1-1.1z"/></svg>